<?xml version="1.0" encoding="UTF-8"?>
<svg version="1.1" xmlns="http://www.w3.org/2000/svg" width="512" height="512">
<path d="M0 0 C0.9906331 -0.00679667 0.9906331 -0.00679667 2.001279 -0.01373065 C4.22456584 -0.02643805 6.44760971 -0.02475024 8.67092896 -0.02310181 C10.26077593 -0.02908315 11.85062 -0.03588778 13.44046021 -0.04345703 C17.7669341 -0.06116519 22.09332894 -0.06581445 26.41983557 -0.0670886 C30.02826405 -0.06898481 33.636674 -0.07633919 37.24509537 -0.08343279 C45.75716659 -0.09973292 54.26919549 -0.1046003 62.78128052 -0.10317993 C71.56888119 -0.1019783 80.35623634 -0.12308065 89.14377487 -0.15466726 C96.68183135 -0.18079946 104.21980749 -0.1915485 111.75790894 -0.19026911 C116.26293757 -0.18975854 120.76774816 -0.19549369 125.27273178 -0.21662521 C129.50975302 -0.23595613 133.74634708 -0.23616765 137.98338318 -0.22159195 C139.53944139 -0.21949627 141.09552598 -0.22424981 142.65153885 -0.23631287 C144.77438308 -0.25170562 146.89574339 -0.24249923 149.01855469 -0.22705078 C150.80109303 -0.22868508 150.80109303 -0.22868508 152.61964226 -0.2303524 C156.26835823 0.37172909 157.41637386 1.36402493 159.63626099 4.26742554 C160.73537647 7.564772 160.75020659 9.99701299 160.73391724 13.46664429 C160.73069458 14.67514038 160.72747192 15.88363647 160.72415161 17.12875366 C160.71577271 18.39139038 160.7073938 19.6540271 160.69876099 20.95492554 C160.69424927 22.22916382 160.68973755 23.5034021 160.68508911 24.81625366 C160.67328972 27.96669117 160.65682696 31.11703502 160.63626099 34.26742554 C161.90489628 34.26051209 161.90489628 34.26051209 163.19916058 34.25345898 C183.77177473 34.14307024 204.34433788 34.06031298 224.91718578 34.00836468 C234.86605142 33.98257554 244.81471945 33.94741143 254.76345825 33.89022827 C263.43410047 33.84041506 272.10459958 33.80813969 280.77538091 33.79698306 C285.36719526 33.79046076 289.95860021 33.77511691 294.55028343 33.73877525 C298.87183632 33.70484856 303.19281099 33.69436575 307.51448441 33.70188713 C309.10078511 33.70051108 310.68710505 33.69055837 312.27329063 33.67139816 C314.4398874 33.64650971 316.60430285 33.65250193 318.77095032 33.66615295 C319.98310809 33.66154399 321.19526587 33.65693502 322.44415569 33.65218639 C326.55054209 34.44364201 328.03694835 36.06725113 330.63626099 39.26742554 C331.26445007 41.43626404 331.26445007 41.43626404 331.2673645 43.62704468 C331.27989761 44.45462784 331.29243073 45.282211 331.30534363 46.13487244 C331.28545631 47.45538857 331.28545631 47.45538857 331.26516724 48.80258179 C331.26757919 49.71825424 331.26999115 50.6339267 331.2724762 51.5773468 C331.27149897 53.50801944 331.25813514 55.43872052 331.23318481 57.36923218 C331.19883111 60.32389401 331.21254279 63.2755714 331.23196411 66.23031616 C331.22506663 68.10858409 331.21539513 69.98684432 331.20266724 71.86508179 C331.20762711 72.7474501 331.21258698 73.62981842 331.21769714 74.53892517 C331.10023088 80.65415517 331.10023088 80.65415517 328.7258606 83.79257202 C317.78738318 91.51302325 302.02490002 86.26742554 288.63626099 86.26742554 C288.63626099 116.95742554 288.63626099 147.64742554 288.63626099 179.26742554 C300.84626099 179.26742554 313.05626099 179.26742554 325.63626099 179.26742554 C331.26129344 184.89245799 331.26129344 184.89245799 331.26546669 188.32013702 C331.27850543 189.09683919 331.29154416 189.87354136 331.30497801 190.67377996 C331.2882476 191.93666712 331.2882476 191.93666712 331.2711792 193.22506714 C331.27897915 194.12827651 331.28677911 195.03148587 331.29481542 195.96206522 C331.31476348 198.98939679 331.29895965 202.01547521 331.28323364 205.04281616 C331.29000849 207.21276077 331.29891087 209.38269962 331.30978394 211.55262756 C331.33259932 217.44725041 331.32373142 223.34143623 331.30788851 229.23606682 C331.29524126 235.40103215 331.30696636 241.56595973 331.31481934 247.73092651 C331.32391929 258.08446988 331.31191876 268.437835 331.28811646 278.79135132 C331.26090455 290.7663587 331.26971843 302.7407351 331.29724848 314.7157445 C331.31992855 324.99188398 331.32314497 335.26789523 331.31005514 345.54405165 C331.30225463 351.68387295 331.30123571 357.82349412 331.31773758 363.96330261 C331.33216685 369.73528305 331.3221882 375.50671403 331.2932663 381.27863503 C331.28664732 383.39865519 331.28856693 385.51872148 331.29957962 387.63872337 C331.31321422 390.52970395 331.29614421 393.41891649 331.2711792 396.30978394 C331.28233281 397.1517087 331.29348642 397.99363347 331.30497801 398.86107111 C331.23474237 403.04492563 330.97074477 404.80869092 328.43381405 408.28801632 C325.34601233 410.47279103 323.97141222 410.89325422 320.24049377 410.89561462 C318.6359584 410.91459557 318.6359584 410.91459557 316.99900818 410.93395996 C315.83572495 410.92226776 314.67244171 410.91057556 313.47390747 410.89852905 C311.62439484 410.90926201 311.62439484 410.90926201 309.73751831 410.92021179 C306.36313281 410.93421029 302.99028283 410.92580559 299.61602283 410.90612149 C296.08248164 410.88971667 292.54898988 410.89855025 289.01542664 410.90364075 C283.08300143 410.90815911 277.1508918 410.89230677 271.21853638 410.86434937 C264.36155815 410.83228351 257.50514856 410.83231952 250.64812988 410.84956414 C244.04807818 410.86543044 237.44823481 410.85869607 230.84819221 410.84162712 C228.04081738 410.83475766 225.23360958 410.83578783 222.42623711 410.84317207 C218.50701099 410.85225912 214.58836887 410.82829659 210.66921997 410.8008728 C208.92125877 410.81066162 208.92125877 410.81066162 207.13798523 410.82064819 C206.07111481 410.80792374 205.00424438 410.79519928 203.90504456 410.78208923 C202.97868415 410.77928231 202.05232374 410.77647539 201.09789181 410.77358341 C197.88515002 410.11298291 196.69883827 408.75797961 194.63626099 406.26742554 C192.99522499 402.98535355 193.49592612 399.34697507 193.50254822 395.73974609 C193.50028266 394.84656154 193.4980171 393.95337699 193.4956829 393.03312624 C193.48932234 390.02218313 193.49017357 387.0112848 193.49099731 384.00033569 C193.4880071 381.84892213 193.48460489 379.69750911 193.4808197 377.5460968 C193.47196135 371.68869258 193.46964081 365.83130296 193.46900392 359.97389269 C193.46805627 355.09049778 193.46437962 350.2071063 193.46083182 345.32371271 C193.45268022 333.8055996 193.45024822 322.28749432 193.45095825 310.76937866 C193.45155918 298.87356188 193.44100593 286.97779042 193.42521459 275.08198512 C193.41215451 264.88153991 193.40677371 254.68110954 193.40741366 244.48065603 C193.40766911 238.38279528 193.40479231 232.28497479 193.39423561 226.18712234 C193.38458042 220.45311803 193.38445769 214.71919266 193.39175224 208.98518562 C193.39280132 206.87763797 193.39041619 204.77008546 193.38439178 202.66254616 C193.37671435 199.79129426 193.38128842 196.92031791 193.38902283 194.04907227 C193.38387926 193.20997019 193.3787357 192.37086812 193.37343627 191.50633872 C193.41769444 184.0998697 193.41769444 184.0998697 195.63626099 181.26742554 C207.87463415 175.14823895 222.95334382 179.26742554 236.63626099 179.26742554 C236.63626099 148.57742554 236.63626099 117.88742554 236.63626099 86.26742554 C129.71626099 86.26742554 22.79626099 86.26742554 -87.36373901 86.26742554 C-87.36373901 116.95742554 -87.36373901 147.64742554 -87.36373901 179.26742554 C-75.15373901 179.26742554 -62.94373901 179.26742554 -50.36373901 179.26742554 C-46.36373901 181.26742554 -46.36373901 181.26742554 -45.12961197 182.84441376 C-43.96285672 186.53570706 -44.08936279 190.20336967 -44.10977173 194.03561401 C-44.10509176 195.37795412 -44.10509176 195.37795412 -44.10031724 196.7474122 C-44.09232688 199.75219678 -44.09866497 202.75678 -44.10494995 205.76156616 C-44.10224055 207.91327534 -44.09867991 210.06498358 -44.09432983 212.21669006 C-44.0851975 218.06573184 -44.08875359 223.91470322 -44.09508801 229.76374626 C-44.10014361 235.87845935 -44.09545778 241.99316632 -44.09231567 248.10787964 C-44.08867475 258.37738123 -44.09347845 268.64685408 -44.10299683 278.91635132 C-44.1138816 290.79744537 -44.11035612 302.67847078 -44.09934402 314.55956316 C-44.09027475 324.75156 -44.0889841 334.94353615 -44.09422135 345.13553572 C-44.09734303 351.22665501 -44.09774496 357.31774202 -44.09114838 363.40885925 C-44.0853808 369.13468967 -44.08936108 374.8604314 -44.10093689 380.58625221 C-44.10358662 382.69057378 -44.10281308 384.79490279 -44.09841156 386.89922142 C-44.09296706 389.76599486 -44.09977699 392.63248198 -44.10977173 395.49923706 C-44.10307956 396.75584381 -44.10307956 396.75584381 -44.0962522 398.03783655 C-44.14542163 405.28161158 -44.14542163 405.28161158 -46.36373901 408.26742554 C-49.66630033 410.46913308 -50.67211539 410.52232106 -54.51226807 410.5415802 C-55.57776382 410.55155533 -56.64325958 410.56153046 -57.74104309 410.57180786 C-58.90994583 410.57247253 -60.07884857 410.57313721 -61.28317261 410.57382202 C-62.51428268 410.58214554 -63.74539276 410.59046906 -65.0138092 410.5990448 C-68.39202823 410.61903481 -71.77000059 410.62978958 -75.14825773 410.63487124 C-77.25911375 410.638514 -79.36994603 410.64475363 -81.480793 410.65187263 C-88.84575696 410.67636976 -96.21065046 410.68941956 -103.57565308 410.69296265 C-110.43940466 410.69659806 -117.30270911 410.72649262 -124.16632402 410.76836723 C-130.06027235 410.80306452 -135.95407246 410.81851098 -141.84812224 410.81920868 C-145.36790259 410.82000172 -148.88722754 410.82875123 -152.40690231 410.85720634 C-156.33328295 410.8882395 -160.25902125 410.87932996 -164.18551636 410.86679077 C-165.93279778 410.88904221 -165.93279778 410.88904221 -167.71537781 410.91174316 C-168.78651321 410.90197952 -169.85764862 410.89221588 -170.96124268 410.88215637 C-171.88927893 410.8841677 -172.81731518 410.88617903 -173.77347374 410.8882513 C-177.63186354 409.96348586 -179.03812315 408.45843638 -181.36373901 405.26742554 C-182.07225483 402.27476793 -182.03925494 399.37428277 -181.99865723 396.30978394 C-182.00645718 395.40657457 -182.01425713 394.5033652 -182.02229345 393.57278585 C-182.04224151 390.54545429 -182.02643768 387.51937587 -182.01071167 384.49203491 C-182.01748652 382.32209031 -182.0263889 380.15215145 -182.03726196 377.98222351 C-182.06007735 372.08760067 -182.05120945 366.19341485 -182.03536654 360.29878426 C-182.02271929 354.13381893 -182.03444439 347.96889134 -182.04229736 341.80392456 C-182.05139732 331.45038119 -182.03939679 321.09701607 -182.01559448 310.74349976 C-181.98838258 298.76849237 -181.99719645 286.79411597 -182.02472651 274.81910658 C-182.04740657 264.5429671 -182.050623 254.26695585 -182.03753316 243.99079943 C-182.02973266 237.85097812 -182.02871373 231.71135696 -182.04521561 225.57154846 C-182.05964487 219.79956803 -182.04966623 214.02813704 -182.02074432 208.25621605 C-182.01412534 206.13619589 -182.01604496 204.01612959 -182.02705765 201.8961277 C-182.04069225 199.00514713 -182.02362224 196.11593459 -181.99865723 193.22506714 C-182.00981084 192.38314237 -182.02096444 191.5412176 -182.03245604 190.67377996 C-182.0194173 189.89707779 -182.00637857 189.12037562 -181.99294472 188.32013702 C-181.99213296 187.65340044 -181.99132119 186.98666387 -181.99048483 186.29972315 C-181.36373901 184.26742554 -181.36373901 184.26742554 -176.36373901 179.26742554 C-164.15373901 179.26742554 -151.94373901 179.26742554 -139.36373901 179.26742554 C-139.36373901 148.57742554 -139.36373901 117.88742554 -139.36373901 86.26742554 C-151.24373901 86.26742554 -163.12373901 86.26742554 -175.36373901 86.26742554 C-180.36373901 83.26742554 -180.36373901 83.26742554 -181.36373901 81.26742554 C-181.47746228 79.93633563 -181.53296854 78.59998162 -181.55661011 77.26425171 C-181.57267303 76.43966965 -181.58873596 75.61508759 -181.60528564 74.76551819 C-181.64976429 70.99264355 -181.69080164 67.21994445 -181.71383667 63.4468689 C-181.73039452 61.45749207 -181.7576823 59.46817469 -181.79586792 57.47909546 C-181.85066165 54.61004799 -181.87251418 51.74239467 -181.88717651 48.87289429 C-181.90984589 47.98627609 -181.93251526 47.0996579 -181.95587158 46.18617249 C-181.95302155 45.35213394 -181.95017151 44.5180954 -181.94723511 43.65878296 C-181.95532196 42.92979294 -181.96340881 42.20080292 -181.97174072 41.44972229 C-181.01550291 38.01750385 -179.07087969 36.51583935 -176.36373901 34.26742554 C-173.17163372 33.65218639 -173.17163372 33.65218639 -169.49842834 33.66615295 C-168.82037008 33.66188083 -168.14231182 33.65760871 -167.44370633 33.65320712 C-165.178335 33.64499033 -162.91482751 33.67243628 -160.64962769 33.69979858 C-159.02329553 33.70120936 -157.39696019 33.7004165 -155.77062988 33.69758606 C-151.35963028 33.69615163 -146.94931066 33.72554549 -142.53846908 33.76045585 C-137.9273891 33.79171495 -133.31629349 33.79464973 -128.7051239 33.80058289 C-119.97510415 33.81612265 -111.24539751 33.8571529 -102.51551563 33.90733033 C-92.57609254 33.96321967 -82.6366545 33.99070927 -72.69711339 34.01580751 C-52.25248051 34.06806864 -31.80812949 34.15601352 -11.36373901 34.26742554 C-11.38730469 33.07983643 -11.38730469 33.07983643 -11.41134644 31.86825562 C-11.473806 28.27221858 -11.51276536 24.67629584 -11.55123901 21.07992554 C-11.57637573 19.83404663 -11.60151245 18.58816772 -11.62741089 17.30453491 C-11.64191284 15.50145874 -11.64191284 15.50145874 -11.65670776 13.66195679 C-11.68027344 12.00450439 -11.68027344 12.00450439 -11.70431519 10.31356812 C-10.85939022 2.75648653 -7.16614821 0.02022448 0 0 Z M6.63626099 18.26742554 C6.63626099 34.76742554 6.63626099 51.26742554 6.63626099 68.26742554 C51.51626099 68.26742554 96.39626099 68.26742554 142.63626099 68.26742554 C142.63626099 51.76742554 142.63626099 35.26742554 142.63626099 18.26742554 C97.75626099 18.26742554 52.87626099 18.26742554 6.63626099 18.26742554 Z M-163.36373901 52.26742554 C-163.36373901 57.54742554 -163.36373901 62.82742554 -163.36373901 68.26742554 C-113.20373901 68.26742554 -63.04373901 68.26742554 -11.36373901 68.26742554 C-11.36373901 62.98742554 -11.36373901 57.70742554 -11.36373901 52.26742554 C-61.52373901 52.26742554 -111.68373901 52.26742554 -163.36373901 52.26742554 Z M160.63626099 52.26742554 C160.63626099 57.54742554 160.63626099 62.82742554 160.63626099 68.26742554 C210.79626099 68.26742554 260.95626099 68.26742554 312.63626099 68.26742554 C312.63626099 62.98742554 312.63626099 57.70742554 312.63626099 52.26742554 C262.47626099 52.26742554 212.31626099 52.26742554 160.63626099 52.26742554 Z M-121.36373901 86.26742554 C-121.36373901 116.95742554 -121.36373901 147.64742554 -121.36373901 179.26742554 C-116.08373901 179.26742554 -110.80373901 179.26742554 -105.36373901 179.26742554 C-105.36373901 148.57742554 -105.36373901 117.88742554 -105.36373901 86.26742554 C-110.64373901 86.26742554 -115.92373901 86.26742554 -121.36373901 86.26742554 Z M254.63626099 86.26742554 C254.63626099 116.95742554 254.63626099 147.64742554 254.63626099 179.26742554 C259.91626099 179.26742554 265.19626099 179.26742554 270.63626099 179.26742554 C270.63626099 148.57742554 270.63626099 117.88742554 270.63626099 86.26742554 C265.35626099 86.26742554 260.07626099 86.26742554 254.63626099 86.26742554 Z M-163.36373901 197.26742554 C-163.36373901 227.95742554 -163.36373901 258.64742554 -163.36373901 290.26742554 C-141.25373901 290.26742554 -119.14373901 290.26742554 -96.36373901 290.26742554 C-96.36373901 259.57742554 -96.36373901 228.88742554 -96.36373901 197.26742554 C-118.47373901 197.26742554 -140.58373901 197.26742554 -163.36373901 197.26742554 Z M-78.36373901 197.26742554 C-78.36373901 227.95742554 -78.36373901 258.64742554 -78.36373901 290.26742554 C-73.08373901 290.26742554 -67.80373901 290.26742554 -62.36373901 290.26742554 C-62.36373901 259.57742554 -62.36373901 228.88742554 -62.36373901 197.26742554 C-67.64373901 197.26742554 -72.92373901 197.26742554 -78.36373901 197.26742554 Z M211.63626099 197.26742554 C211.63626099 227.95742554 211.63626099 258.64742554 211.63626099 290.26742554 C233.74626099 290.26742554 255.85626099 290.26742554 278.63626099 290.26742554 C278.63626099 259.57742554 278.63626099 228.88742554 278.63626099 197.26742554 C256.52626099 197.26742554 234.41626099 197.26742554 211.63626099 197.26742554 Z M296.63626099 197.26742554 C296.63626099 227.95742554 296.63626099 258.64742554 296.63626099 290.26742554 C301.91626099 290.26742554 307.19626099 290.26742554 312.63626099 290.26742554 C312.63626099 259.57742554 312.63626099 228.88742554 312.63626099 197.26742554 C307.35626099 197.26742554 302.07626099 197.26742554 296.63626099 197.26742554 Z M-163.36373901 308.26742554 C-163.80249281 311.6750308 -163.60974586 312.94190315 -161.50350952 315.72892761 C-160.63302979 316.58830429 -159.76255005 317.44768097 -158.86569214 318.33309937 C-158.38776718 318.81175446 -157.90984222 319.29040955 -157.41743469 319.78356934 C-155.83818321 321.35934337 -154.24197801 322.91667888 -152.64498901 324.47445679 C-151.54531033 325.56480794 -150.44673199 326.65626989 -149.34921265 327.74879456 C-146.46011113 330.61882181 -143.55631021 333.47351737 -140.64920044 336.32528687 C-137.68435204 339.23895253 -134.73363914 342.16685605 -131.78170776 345.09359741 C-125.98946571 350.83224421 -120.18161883 356.55477265 -114.36373901 362.26742554 C-110.68911634 360.71981584 -108.32180005 358.490551 -105.50338745 355.69760132 C-105.03463196 355.23556305 -104.56587646 354.77352478 -104.08291626 354.29748535 C-102.54099421 352.77450273 -101.0066705 351.24414102 -99.47311401 349.71273804 C-98.4028066 348.64885875 -97.3323495 347.58513003 -96.26174927 346.52154541 C-94.02231429 344.29407115 -91.78703778 342.06251572 -89.5541687 339.82846069 C-86.69028964 336.96437791 -83.81287413 334.11432476 -80.93175888 331.26759529 C-78.71850172 329.07654948 -76.51436846 326.87649985 -74.31272125 324.67379379 C-73.25536252 323.6187974 -72.19475398 322.56704781 -71.13088226 321.51861954 C-69.64643609 320.05372697 -68.17515225 318.57675445 -66.70651245 317.09603882 C-65.86586243 316.25823883 -65.0252124 315.42043884 -64.15908813 314.55725098 C-61.95239643 312.22774713 -61.95239643 312.22774713 -62.36373901 308.26742554 C-66.79365237 307.21677442 -71.00431325 306.80865878 -75.36373901 308.26742554 C-81.58151828 312.27311213 -86.46139438 318.23501731 -91.42623901 323.64242554 C-93.50155634 325.84024507 -95.58609349 328.02887285 -97.6743927 330.21435547 C-98.96519078 331.57183762 -100.24670971 332.93821996 -101.51756287 334.31439209 C-102.09594406 334.93488434 -102.67432526 335.55537659 -103.27023315 336.19467163 C-103.77285172 336.74094208 -104.27547028 337.28721252 -104.7933197 337.85003662 C-107.35077624 340.15828036 -109.75822799 341.14357101 -113.11373901 341.82992554 C-120.35952435 340.57584731 -125.52629095 333.092451 -130.37545776 327.89633179 C-132.03577846 326.13957887 -133.69817251 324.38481746 -135.36154175 322.63095093 C-136.49011674 321.42801816 -137.60768071 320.21466163 -138.71408081 318.99130249 C-145.26384123 311.4446673 -145.26384123 311.4446673 -154.09274292 307.48568726 C-157.28973736 307.48265447 -160.22456351 307.68385052 -163.36373901 308.26742554 Z M-124.36373901 308.26742554 C-120.30873909 312.99825878 -117.11477593 316.53446796 -112.36373901 320.26742554 C-110.52738323 318.45789963 -108.69457694 316.64501915 -106.86373901 314.82992554 C-106.33909058 314.31365601 -105.81444214 313.79738647 -105.27389526 313.26547241 C-103.95149349 311.95165767 -102.65538333 310.61149049 -101.36373901 309.26742554 C-101.36373901 308.93742554 -101.36373901 308.60742554 -101.36373901 308.26742554 C-108.95373901 308.26742554 -116.54373901 308.26742554 -124.36373901 308.26742554 Z M250.63626099 308.26742554 C254.69126091 312.99825878 257.88522407 316.53446796 262.63626099 320.26742554 C264.47261677 318.45789963 266.30542306 316.64501915 268.13626099 314.82992554 C268.66090942 314.31365601 269.18555786 313.79738647 269.72610474 313.26547241 C271.04850651 311.95165767 272.34461667 310.61149049 273.63626099 309.26742554 C273.63626099 308.93742554 273.63626099 308.60742554 273.63626099 308.26742554 C266.04626099 308.26742554 258.45626099 308.26742554 250.63626099 308.26742554 Z M211.63626099 308.26742554 C212.09641756 313.01159046 213.90902122 315.02844397 217.24783325 318.33309937 C217.96493973 319.051082 217.96493973 319.051082 218.6965332 319.78356934 C220.27261275 321.35687129 221.86236372 322.91554498 223.45266724 324.47445679 C224.55070077 325.5650268 225.6478521 326.65648572 226.74415588 327.74879456 C229.62717408 330.61656535 232.52200272 333.47211941 235.41946411 336.32528687 C238.37591647 339.24076753 241.32102966 342.16765324 244.26712036 345.09359741 C250.04580245 350.82942436 255.83701246 356.55239361 261.63626099 362.26742554 C265.2624394 360.73102993 267.61449607 358.55964745 270.40481567 355.80526733 C271.34548889 354.88058151 272.28616211 353.95589569 273.25534058 353.00318909 C274.27341678 351.991488 275.29100368 350.97929433 276.30813599 349.96664429 C277.35609579 348.92765377 278.40413157 347.88873989 279.45223999 346.84989929 C281.64474974 344.67385779 283.83284637 342.49347965 286.01858521 340.31063843 C288.82024813 337.51437096 291.63772331 334.73463333 294.45939255 331.95857525 C296.62796319 329.81973427 298.78520632 327.66973991 300.93946075 325.51648903 C301.97361238 324.48654431 303.01188725 323.46072252 304.05431366 322.43915367 C305.50972952 321.01057358 306.94793816 319.56452652 308.38528442 318.11776733 C309.20816956 317.29995285 310.03105469 316.48213837 310.87887573 315.63954163 C312.90192173 312.90883704 313.03770164 311.58678084 312.63626099 308.26742554 C308.19676328 307.16535444 304.00380472 306.77237095 299.63626099 308.26742554 C293.20156199 312.45304273 288.12200885 318.60768923 282.94876099 324.20492554 C281.48641993 325.74113693 280.02094874 327.27437512 278.55227661 328.80453491 C276.49262577 330.95110942 274.43876834 333.10099558 272.40830994 335.27522278 C271.80975693 335.91581131 271.21120392 336.55639984 270.59451294 337.21640015 C270.06968826 337.7826561 269.54486359 338.34891205 269.00413513 338.93232727 C266.97233406 340.91544399 265.73117743 341.25663958 262.88626099 341.57992554 C255.94700467 340.91268935 251.63028847 335.4054766 247.16360474 330.53305054 C245.92249656 329.22281554 244.6796006 327.91427211 243.43508911 326.60726929 C241.49829612 324.56572511 239.57362481 322.51727619 237.67752075 320.43783569 C230.44568643 312.05274895 230.44568643 312.05274895 220.80471802 307.37875366 C217.60962979 307.3770212 214.75409149 307.59376141 211.63626099 308.26742554 Z M211.63626099 338.26742554 C210.3419539 344.92945808 209.62689959 351.54012902 212.95388794 357.71157837 C217.39316601 364.0506035 222.8325827 369.47152736 228.38626099 374.82992554 C229.22913666 375.65153168 230.07201233 376.47313782 230.94042969 377.31964111 C244.7545106 391.02461664 244.7545106 391.02461664 262.69876099 396.82992554 C276.55762579 396.0420188 287.01385465 384.45148579 296.38626099 375.32992554 C297.20103912 374.54481598 298.01581726 373.75970642 298.85528564 372.95080566 C309.61815621 362.64830201 309.61815621 362.64830201 313.73544312 348.88398743 C313.61657709 345.60073666 313.24160182 342.49772081 312.63626099 339.26742554 C307.11641863 343.85470841 302.05902569 348.75581955 297.03469849 353.87680054 C295.39436203 355.53463816 293.75372825 357.19218165 292.11282349 358.84945679 C289.55091092 361.44241986 286.99141019 364.03763404 284.43704224 366.63803101 C281.95548519 369.16186573 279.46462083 371.67620164 276.97219849 374.18930054 C275.82985245 375.35957794 275.82985245 375.35957794 274.66442871 376.55349731 C273.58773422 377.63537323 273.58773422 377.63537323 272.48928833 378.73910522 C271.8642038 379.3738678 271.23911926 380.00863037 270.59509277 380.66262817 C267.33218038 383.33580984 264.86080753 384.3120243 260.6235199 384.15769958 C257.02494483 383.08523882 255.46309067 381.69330631 252.84011841 379.02304077 C251.94286545 378.12218246 251.04561249 377.22132416 250.12117004 376.29316711 C249.16116 375.30430867 248.20135124 374.31525478 247.24172974 373.32601929 C246.24496176 372.31737775 245.247003 371.30991173 244.24790955 370.30357361 C241.62829523 367.65926703 239.02362465 365.00072863 236.42227173 362.33847046 C232.7428433 358.57840087 229.04322446 354.83817558 225.34605408 351.0955658 C223.37775011 349.10295013 221.41507246 347.10503377 219.45661926 345.10273743 C218.57512711 344.20503128 217.69363495 343.30732513 216.78543091 342.38241577 C216.00632858 341.58601181 215.22722626 340.78960785 214.42451477 339.96907043 C212.92693745 338.1525345 212.92693745 338.1525345 211.63626099 338.26742554 Z M-65.1519928 339.96907043 C-65.93109512 340.7654744 -66.71019745 341.56187836 -67.51290894 342.38241577 C-68.39440109 343.28012192 -69.27589325 344.17782806 -70.18409729 345.10273743 C-70.89481668 345.82936742 -70.89481668 345.82936742 -71.61989403 346.5706768 C-73.60783427 348.60045569 -75.6048862 350.62116009 -77.60154438 352.64235783 C-81.32240093 356.40902545 -85.0396894 360.17900744 -88.73995972 363.96591187 C-91.31084255 366.59627688 -93.89384533 369.21418885 -96.48522377 371.82435799 C-97.47012938 372.82099585 -98.45048654 373.82215036 -99.42610741 374.82787895 C-100.79486022 376.23776294 -102.18091461 377.63078697 -103.56759644 379.02304077 C-104.35067673 379.82024033 -105.13375702 380.61743988 -105.94056702 381.438797 C-108.90438654 383.67542113 -110.65491216 384.21046972 -114.36373901 384.26742554 C-118.71041914 382.61552538 -121.64190302 380.35697008 -124.88449097 377.07138062 C-125.72168167 376.23073563 -126.55887238 375.39009064 -127.4214325 374.52397156 C-128.30602646 373.62075668 -129.19062042 372.71754181 -130.10202026 371.78695679 C-131.50934721 370.36952362 -132.91667631 368.95209259 -134.32413769 367.5347929 C-136.28308119 365.55836497 -138.2350049 363.57507288 -140.18704224 361.59182739 C-143.62147248 358.10503401 -147.06600654 354.62822971 -150.51197815 351.15284729 C-152.34473526 349.30303416 -154.17440668 347.450158 -156.0007782 345.59403992 C-156.8222081 344.76285141 -157.643638 343.9316629 -158.48995972 343.07528687 C-159.21576736 342.33820999 -159.94157501 341.60113312 -160.68937683 340.84172058 C-162.10212317 339.15325868 -162.10212317 339.15325868 -163.36373901 339.26742554 C-164.60443911 345.8882042 -165.35152481 352.52554898 -162.08712769 358.67056274 C-157.79835339 364.85343445 -152.51644004 370.12395348 -147.11373901 375.32992554 C-146.29420746 376.12752289 -145.4746759 376.92512024 -144.63031006 377.74688721 C-131.0386138 391.13220178 -131.0386138 391.13220178 -113.42623901 396.82992554 C-99.3024723 396.11234026 -88.63174817 384.10775266 -79.11373901 374.82992554 C-78.27513336 374.02080719 -77.43652771 373.21168884 -76.57250977 372.37805176 C-65.53699023 361.87828516 -65.53699023 361.87828516 -61.23049927 347.84992981 C-61.35327974 344.57279755 -61.73807575 341.48782747 -62.36373901 338.26742554 C-63.65441548 338.1525345 -63.65441548 338.1525345 -65.1519928 339.96907043 Z M-65.64889526 383.41976929 C-67.02368042 384.79842163 -67.02368042 384.79842163 -68.42623901 386.20492554 C-69.34534058 387.12144897 -70.26444214 388.03797241 -71.21139526 388.98226929 C-73.47801174 390.86555101 -73.47801174 390.86555101 -73.36373901 392.26742554 C-69.73373901 392.26742554 -66.10373901 392.26742554 -62.36373901 392.26742554 C-62.36373901 388.63742554 -62.36373901 385.00742554 -62.36373901 381.26742554 C-63.76561354 381.15315281 -63.76561354 381.15315281 -65.64889526 383.41976929 Z M211.63626099 381.26742554 C211.63626099 384.89742554 211.63626099 388.52742554 211.63626099 392.26742554 C215.26626099 392.26742554 218.89626099 392.26742554 222.63626099 392.26742554 C219.20156774 388.113843 216.00355633 384.47867211 211.63626099 381.26742554 Z M-163.36373901 382.26742554 C-163.36373901 385.56742554 -163.36373901 388.86742554 -163.36373901 392.26742554 C-160.06373901 392.26742554 -156.76373901 392.26742554 -153.36373901 392.26742554 C-154.27123901 391.17430054 -155.17873901 390.08117554 -156.11373901 388.95492554 C-156.62420776 388.34004272 -157.13467651 387.72515991 -157.66061401 387.09164429 C-159.59967342 384.90786737 -159.59967342 384.90786737 -163.36373901 382.26742554 Z M309.56985474 384.20101929 C308.7461438 385.02730835 307.92243286 385.85359741 307.07376099 386.70492554 C306.24747192 387.52863647 305.42118286 388.35234741 304.56985474 389.20101929 C302.52238564 390.91745833 302.52238564 390.91745833 302.63626099 392.26742554 C305.93626099 392.26742554 309.23626099 392.26742554 312.63626099 392.26742554 C312.63626099 388.96742554 312.63626099 385.66742554 312.63626099 382.26742554 C311.28629378 382.15355019 311.28629378 382.15355019 309.56985474 384.20101929 Z " fill="#000000" transform="translate(181.36373901367188,50.732574462890625)"/>
<path d="M0 0 C1.41133756 -0.0067786 2.82266627 -0.0156831 4.23397827 -0.02655029 C8.06056324 -0.04932219 11.88647333 -0.04051657 15.71306992 -0.02465487 C19.7199458 -0.01198469 23.72676439 -0.02373907 27.73364258 -0.03158569 C34.46218223 -0.04067905 41.19044736 -0.02870277 47.91894531 -0.00488281 C55.69503561 0.02232811 63.47047042 0.0135137 71.24654484 -0.01401484 C77.92613105 -0.03671404 84.60552008 -0.03990211 91.28513241 -0.02682149 C95.27317485 -0.01903134 99.2609093 -0.0179731 103.24893188 -0.03450394 C106.99862941 -0.04896154 110.74748293 -0.03890486 114.49708939 -0.01003265 C115.87210311 -0.00342852 117.24718803 -0.00530822 118.62217331 -0.01634598 C129.22269362 -0.0935884 129.22269362 -0.0935884 133.48519897 2.85578918 C135.21299371 5.52349177 136.67248953 8.03212999 137.92431641 10.95288086 C138.37473297 11.98778152 138.82514954 13.02268219 139.28921509 14.08894348 C139.75709442 15.19735092 140.22497375 16.30575836 140.70703125 17.44775391 C141.20335052 18.59809616 141.6996698 19.74843842 142.21102905 20.93363953 C143.52385138 23.98311655 144.82598089 27.03672134 146.12335205 30.09277344 C147.17823444 32.57088413 148.24338053 35.04451399 149.3091526 37.51795673 C154.96939942 50.65589806 154.96939942 50.65589806 157.1678772 55.96589661 C157.8319629 57.54840272 158.52102913 59.12145789 159.26449585 60.66825867 C162.22032197 67.21605015 161.72717129 74.2013547 161.69140625 81.25244141 C161.69343068 82.6639267 161.69634519 84.07541096 161.70010376 85.4868927 C161.70450545 88.43122409 161.69816336 91.37528082 161.68408203 94.31958008 C161.6669436 98.08564809 161.67687377 101.85107678 161.69479942 105.6171217 C161.70565561 108.52627863 161.7021834 111.43528463 161.69441605 114.34444618 C161.69242155 115.7330667 161.69484687 117.12170113 161.70185471 118.5103054 C161.70950384 120.45063374 161.695771 122.39101049 161.68115234 124.33129883 C161.67876556 125.43301926 161.67637878 126.53473969 161.67391968 127.66984558 C161.23936476 131.06588722 160.32977516 132.91577749 158.29296875 135.64697266 C155.08890413 137.78301574 154.29696128 137.88906173 150.625 137.84228516 C149.73232422 137.83583984 148.83964844 137.82939453 147.91992188 137.82275391 C146.52676758 137.79761719 146.52676758 137.79761719 145.10546875 137.77197266 C144.16509766 137.76294922 143.22472656 137.75392578 142.25585938 137.74462891 C139.93463907 137.72106322 137.61393231 137.68816382 135.29296875 137.64697266 C135.31915283 138.49928467 135.34533691 139.35159668 135.37231445 140.22973633 C135.45778367 143.40724392 135.52033664 146.58416376 135.56762695 149.76245117 C135.59269492 151.13504367 135.62675957 152.50750367 135.67016602 153.87963867 C135.73114406 155.85747962 135.75657884 157.83631449 135.78125 159.81494141 C135.80743408 161.00369873 135.83361816 162.19245605 135.8605957 163.41723633 C135.29296875 166.64697266 135.29296875 166.64697266 133.35839844 169.53466797 C129.10677917 172.46434381 125.81078286 172.35197794 120.7578125 172.27587891 C119.84214005 172.27829086 118.92646759 172.28070282 117.98304749 172.28318787 C116.05237485 172.28221064 114.12167377 172.26884681 112.19116211 172.24389648 C109.23650028 172.20954278 106.28482289 172.22325446 103.33007812 172.24267578 C101.45181019 172.2357783 99.57354997 172.2261068 97.6953125 172.21337891 C96.81294418 172.21833878 95.93057587 172.22329865 95.02146912 172.22840881 C88.90623912 172.11094255 88.90623912 172.11094255 85.76782227 169.73657227 C78.65338608 159.65670812 83.29296875 156.57892269 83.29296875 137.64697266 C63.82296875 137.64697266 44.35296875 137.64697266 24.29296875 137.64697266 C24.29296875 147.21697266 24.29296875 156.78697266 24.29296875 166.64697266 C18.66683194 172.27310946 18.66683194 172.27310946 14.93334961 172.27807617 C14.10576645 172.29060928 13.27818329 172.3031424 12.42552185 172.3160553 C11.54517776 172.30279709 10.66483368 172.28953888 9.7578125 172.27587891 C8.38430382 172.27949684 8.38430382 172.27949684 6.98304749 172.28318787 C5.05237485 172.28221064 3.12167377 172.26884681 1.19116211 172.24389648 C-1.76349972 172.20954278 -4.71517711 172.22325446 -7.66992188 172.24267578 C-9.54818981 172.2357783 -11.42645003 172.2261068 -13.3046875 172.21337891 C-14.18705582 172.21833878 -15.06942413 172.22329865 -15.97853088 172.22840881 C-22.07245961 172.11135173 -22.07245961 172.11135173 -25.23217773 169.79907227 C-27.82738995 166.01215029 -27.82568149 162.91947431 -27.8046875 158.44775391 C-27.80146484 157.23925781 -27.79824219 156.03076172 -27.79492188 154.78564453 C-27.78654297 153.52300781 -27.77816406 152.26037109 -27.76953125 150.95947266 C-27.76501953 149.68523437 -27.76050781 148.41099609 -27.75585938 147.09814453 C-27.74405998 143.94770702 -27.72759722 140.79736317 -27.70703125 137.64697266 C-28.84374268 137.6785144 -28.84374268 137.6785144 -30.00341797 137.71069336 C-31.49252686 137.73522583 -31.49252686 137.73522583 -33.01171875 137.76025391 C-33.99640137 137.78128174 -34.98108398 137.80230957 -35.99560547 137.82397461 C-38.70703125 137.64697266 -38.70703125 137.64697266 -41.83203125 135.83447266 C-51.64762474 124.38294691 -45.94267397 85.26044027 -45.04425049 70.2479248 C-43.9553426 58.62016233 -39.40328697 49.08130213 -33.57666016 39.05712891 C-31.48267714 35.23775639 -29.78051073 31.3580425 -28.125 27.33447266 C-27.69215446 26.28690292 -27.69215446 26.28690292 -27.25056458 25.21817017 C-26.67861167 23.82916334 -26.10788183 22.43965222 -25.53842163 21.04962158 C-24.24340061 17.89124011 -22.92888112 14.74475169 -21.58203125 11.60791016 C-21.14632812 10.57456543 -20.710625 9.5412207 -20.26171875 8.4765625 C-15.23844643 -0.66598243 -9.8360253 -0.07895915 0 0 Z M-4.70703125 18.64697266 C-16.10047341 38.55762485 -16.10047341 38.55762485 -21.70703125 59.64697266 C31.09296875 59.64697266 83.89296875 59.64697266 138.29296875 59.64697266 C132.79828306 45.91025842 127.12096302 32.24562596 121.29296875 18.64697266 C79.71296875 18.64697266 38.13296875 18.64697266 -4.70703125 18.64697266 Z M-26.70703125 77.64697266 C-26.70703125 91.50697266 -26.70703125 105.36697266 -26.70703125 119.64697266 C29.39296875 119.64697266 85.49296875 119.64697266 143.29296875 119.64697266 C143.29296875 105.78697266 143.29296875 91.92697266 143.29296875 77.64697266 C87.19296875 77.64697266 31.09296875 77.64697266 -26.70703125 77.64697266 Z M-9.70703125 137.64697266 C-9.70703125 142.92697266 -9.70703125 148.20697266 -9.70703125 153.64697266 C-4.42703125 153.64697266 0.85296875 153.64697266 6.29296875 153.64697266 C6.29296875 148.36697266 6.29296875 143.08697266 6.29296875 137.64697266 C1.01296875 137.64697266 -4.26703125 137.64697266 -9.70703125 137.64697266 Z M101.29296875 137.64697266 C101.29296875 142.92697266 101.29296875 148.20697266 101.29296875 153.64697266 C106.57296875 153.64697266 111.85296875 153.64697266 117.29296875 153.64697266 C117.29296875 148.36697266 117.29296875 143.08697266 117.29296875 137.64697266 C112.01296875 137.64697266 106.73296875 137.64697266 101.29296875 137.64697266 Z " fill="#000000" transform="translate(197.70703125,289.35302734375)"/>
</svg>
